<?xml version="1.0" encoding="UTF-8"?>
<svg id="logosandtypes_com" data-name="logosandtypes com" xmlns="http://www.w3.org/2000/svg" viewBox="0 0 150 150">
  <defs>
    <style>
      .cls-1 {
        fill: #c80b0e;
      }

      .cls-2 {
        fill: #ec6607;
      }

      .cls-3 {
        fill: none;
      }

      .cls-4 {
        fill: #050d9e;
      }
    </style>
  </defs>
  <path id="Layer_3" data-name="Layer 3" class="cls-3" d="M0,0H150V150H0V0Z"/>
  <path id="Path_9" data-name="Path 9" class="cls-1" d="M79.59,33.01V12.72c3.2-.65,5.28-3.77,4.63-6.97-.65-3.2-3.77-5.28-6.97-4.63-3.2,.65-5.28,3.77-4.63,6.97,.47,2.33,2.28,4.15,4.61,4.63v20.3c.41-.01,.82-.02,1.23-.02,.38,0,.75,0,1.13,.01Z"/>
  <path id="Path_10" data-name="Path 10" class="cls-4" d="M39.29,96.57c-.4-.79-.77-1.59-1.12-2.4l-19.52,9.1c-1.77-2.06-4.87-2.3-6.93-.53-2.06,1.77-2.3,4.87-.53,6.93,1.77,2.06,4.87,2.3,6.93,.53,1.3-1.12,1.93-2.84,1.65-4.53l19.52-9.1Z"/>
  <path id="Path_11" data-name="Path 11" class="cls-2" d="M118.47,125.8c-.76,0-1.52,.11-2.26,.32l-10.47-14.95h0c18.84-15.03,21.93-42.48,6.9-61.32-15.03-18.84-42.48-21.93-61.32-6.9-18.84,15.03-21.93,42.48-6.9,61.32,13.56,16.99,37.56,21.42,56.28,10.37l.68-.46,10.49,14.98c-2.65,3.65-1.84,8.76,1.81,11.41,3.65,2.65,8.76,1.84,11.41-1.81,2.65-3.65,1.84-8.76-1.81-11.41-1.4-1.02-3.08-1.56-4.81-1.56Zm-40-13.99c-19.31,0-34.97-15.65-34.98-34.96,0-19.31,15.65-34.97,34.96-34.98,19.31,0,34.97,15.65,34.98,34.96,0,10.48-4.69,20.4-12.79,27.05h0l-6.86-9.79c.95-2.44-.27-5.19-2.71-6.13-.55-.21-1.13-.32-1.72-.32-.03,0-.06,0-.09,0-2.62,.05-4.71,2.21-4.66,4.83,.05,2.59,2.16,4.66,4.75,4.66,.03,0,.06,0,.09,0l6.81,9.72h0l-1.49,.94c-5.02,2.65-10.61,4.03-16.28,4.02h0Z"/>
</svg>