<svg version="1.2" xmlns="http://www.w3.org/2000/svg" viewBox="0 0 1553 1445" width="1553" height="1445">
	<title>tataRlogo</title>
	<style>
		.s0 { fill: #3d85c6 } 
	</style>
	<g id="Layer">
		<g id="Layer">
			<path id="Layer" class="s0" d="m0 1055.7v112.3h112.4v277h156.5v-277h108.3v-112.3z"/>
			<path id="Layer" class="s0" d="m754.4 1055.7v112.3h112.4v277h156.5v-277h108.3v-112.3z"/>
			<path id="Layer" class="s0" d="m485.6 1055.7l-144.5 389.3h148.5l76.2-236.8 80.3 236.8h152.5l-148.5-389.3z"/>
			<path id="Layer" class="s0" d="m1240 1055.7l-144.5 389.3h148.5l80.2-236.8 76.3 236.8h152.5l-152.5-389.3z"/>
		</g>
		<g id="Layer">
			<path id="Layer" class="s0" d="m585.9 762.6c-228.7-56.2-397.3-200.7-397.3-373.3 0-20 4-44.1 8-64.2 112.4-32.1 405.3-76.2 461.5-40.1 36.1 24.1-32.1 305-72.2 477.6z"/>
			<path id="Layer" class="s0" d="m1352.3 329.1c4 20.1 8.1 40.2 8.1 64.3 0 172.6-168.6 317.1-397.3 369.2-40.1-172.6-108.4-453.5-72.2-473.6 52.1-36.1 349.1 8 461.4 40.1z"/>
			<path id="Layer" class="s0" d="m774.5 0c252.8 0 469.5 108.4 549.7 256.9-92.3-16.1-529.6-120.4-525.6-32.1v557.9q-12.1 0-24.1 0c-8 0-16.1 0-28.1 0v-557.9c8-88.3-429.4 20-521.7 32.1 80.3-148.5 297-256.9 549.8-256.9z"/>
		</g>
	</g>
</svg>