<?xml version="1.0" encoding="UTF-8" standalone="no"?>
<svg
   version="1.1"
   viewBox="0 0 1536 1536"
   width="1280"
   height="1280"
   id="svg221"
   sodipodi:docname="w453y.svg"
   inkscape:version="1.3.2 (091e20ef0f, 2023-11-25, custom)"
   xmlns:inkscape="http://www.inkscape.org/namespaces/inkscape"
   xmlns:sodipodi="http://sodipodi.sourceforge.net/DTD/sodipodi-0.dtd"
   xmlns="http://www.w3.org/2000/svg"
   xmlns:svg="http://www.w3.org/2000/svg">
  <defs
     id="defs221" />
  <sodipodi:namedview
     id="namedview221"
     pagecolor="#ffffff"
     bordercolor="#000000"
     borderopacity="0.25"
     inkscape:showpageshadow="2"
     inkscape:pageopacity="0.0"
     inkscape:pagecheckerboard="0"
     inkscape:deskcolor="#d1d1d1"
     inkscape:zoom="0.628125"
     inkscape:cx="640"
     inkscape:cy="640"
     inkscape:window-width="1920"
     inkscape:window-height="1008"
     inkscape:window-x="0"
     inkscape:window-y="0"
     inkscape:window-maximized="1"
     inkscape:current-layer="svg221" />
  <path
     d="M 0,450.26119 H 1536 V 1091.9478 H 0 Z"
     fill="#3e4244"
     id="path1"
     style="stroke-width:0.646347;fill:none" />
  <path
     transform="translate(724,483)"
     d="m0 0 2 2 4 14 6 14 8 11 7 8 11 7 11 5 14 4 8 1 93 1 197 1 17 3 19 7 15 8 15 11 12 12 7 10 6 12 4 13 2 11v29l-4 18-7 17-11 17-12 13-9 8-11 7-10 5-5 2h-3v2l9 1 21 7 16 9 11 9 7 7 8 11 8 17 3 12 1 8v17l-3 21-5 15-8 15-8 11-9 10-10 9-14 9-14 7-18 6-17 3-18 1-16-1-18-4-15-6-11-7-10-9-8-10-5-11-3-12v-19l4-13 7-11 9-8 8-4 6-2 14-1 10 1v2l-8 4-7 8-5 12v19l3 12 7 12 9 7 9 4 7 2h23l15-4 11-5 11-7 7-6 8-11 8-15 4-14 2-10v-25l-5-19-8-14-9-10-8-7-16-8-17-4-9-1-24-1h-11l-7-2-11-1 2-2 28-3 18-4 17-7 12-8 12-11 8-11 8-16 4-16 1-8v-26l-5-21-5-12-7-11-10-9-10-5-13-2h-287l-9 71-3 26h70l19 3 16 5 12 5 14 8 13 10 14 14 10 15 8 17 6 22 2 16v28l-3 19-5 17-9 20-10 16-9 11-9 10-11 10-13 9-17 9-21 7-17 3h-30l-16-3-18-7-14-9-7-6-9-13-5-12-3-12v-10l3-14 5-10 7-8 8-5 12-3h11l4 1-2 4-4 5-4 12-1 7v8l4 16 6 10 9 8 11 5 10 2h15l16-4 12-5 11-7 11-9 9-10 8-13 8-19 4-17 2-19v-14l-3-22-6-18-7-13-9-12-8-8-13-8-16-6-12-2-19-1-55-1 7-65 8-67-5-1-13-9-11-10-10-13-9-16-5-12-4-15-1-5-1-18z"
     fill="#BCB8B1"
     id="path2" />
  <path
     transform="translate(22,513)"
     d="m0 0 88 1v3l-7 2-10 3-5 5-2 5v9l6 26 17 63 19 68 11 39 12 44 8 29 12 43 4 14 9-25 10-29 15-43 14-38 9-26 8-21 9-20 9-16 7-10 11-12 8-7 11-7 14-6 17-4h17l1 2-16 5-13 8-10 9-10 13-5 12-2 7v13l6 25 16 57 8 30 15 54 3 10v4h2l3-10 8-21 19-54 7-20 32-91 8-23 16-44 7-21 7-16 6-8 8-8 16-9 11-4 14-2h10l10 2-3 2-15 3-16 6-14 9-9 9-7 11-7 14-16 43-16 44-10 28-13 36-10 29-15 42-13 37-9 24-3 17v36l4 21 6 20 11 25 8 14 10 15 9 11 7 8 2 1v2l4 2 9 8 15 10 17 7 16 3h14l13-2 15-6 7-5 2 1-5 5-11 8-15 7-12 3-8 1h-17l-17-3-16-5-17-8-13-9-14-11-17-17-13-18-10-18-9-21-8-24-13-49-10-36-9-32-15-53-10-34-8-27v-2h-2l-1 7-17 46-15 42-19 55-9 28-14 50-6 23-4 9-2-3-5-15-8-29-14-47-15-50-16-53-10-35-8-26-15-53-28-98-6-18-7-10-9-6-16-2v-6z"
     fill="#BCB8B1"
     id="path3" />
  <path
     transform="translate(663,463)"
     d="m0 0h16l12 3 7 3v1h-17l-17 4-12 7-8 7-10 16-8 16-10 26-17 55-10 23-14 23-7 10-16 25-12 19-15 23-11 17-13 20-9 14-5 7 15-1h17l17 2 16 5 26 12 16 7 10 3 12 1h19l1-78 16-16 11-15 9-15 9-17h2v112h96l23-1 17-3 19-6 8-4-1 3-31 20-17 10-17 8-18 6-14 3-8 1h-57l1 112 2 11 4 8 9 6 18 4v1h-109v-2l12-3 8-5 5-10 1-6 1-118-43 1-188 1 2-4 12-16 11-15 27-41 15-23 16-25 14-22 26-40 10-16 15-23 12-19 11-17 15-23 11-17 15-22 10-13 9-9 16-8z"
     fill="#BCB8B1"
     id="path4" />
  <path
     transform="translate(1519,563)"
     d="m0 0h9l8 1v6l-13 2-12 5-13 9-11 13-10 17-8 16-13 27-16 36-17 38-16 36-14 31-15 35v99l2 7 3 7 8 7 9 4 13 2-4 2-32 1h-80v-3l13-3 10-7 5-6 4-10 1-95-13-28-15-33-13-29-10-21-15-33-25-51-7-10-8-7-9-5-20-7v-3l111 1h13l1 3-15 5-5 5-3 5-1 10 4 13 13 30 16 38 18 42 14 34 10 22 12-28 15-34 16-37 11-25 15-35 12-27 11-24 11-19 7-9 8-8 11-7 11-4z"
     fill="#BCB8B1"
     id="path5" />
  <path
     transform="translate(500,521)"
     d="m0 0h10l10 2-3 2-15 3-16 6-14 9-9 9-7 11-7 14-16 43-16 44-10 28-13 36-10 29-15 42-13 37-9 24-3 17v36l4 21 6 20 1 6-2-2-6-17-4-17-2-14v-31l2-14 6-18 6-16 1-4h-2v-2h2l1-3 1-4 3-5 6-16 7-21 4-13 1-4h-1v-5l-4 4-7 20-5 15-12 34-3 3 1-6 15-43 10-27 9-27 13-36 10-29 8-23 12-34 7-20 9-24 7-14 11-11 16-9 11-4z"
     fill="#BCB8B1"
     id="path6" />
  <path
     transform="translate(500,521)"
     d="m0 0h10l10 2-3 2-15 3-16 6-8 5-3-1 10-7v-3l-5 1-10 3-12 8-1 2h-2v5l-3-1-6 10-4 9-5 15v5h-2l-3 9-8 22-8 23-2 7-1 4-4 9-6 16-1-4 11-32 12-34 7-20 9-24 7-14 11-11 16-9 11-4z"
     fill="#C6C4BE"
     id="path7" />
  <path
     transform="translate(789,550)"
     d="m0 0h99l197 1 17 3 14 5-1 2-14-4-5-1-8-2-16-1h-160l-116-1-7-1z"
     fill="#C7C5BF"
     id="path8" />
  <path
     transform="translate(406,688)"
     d="m0 0 1 4-13 36-10 29-15 42-13 37-9 24-3 17v36l4 21 6 20 1 6-2-2-6-17-4-17-2-14v-31l2-14 6-18 6-16 1-4h-2v-2h2l1-3 1-4 3-5 6-16 7-21 4-13 1-4v-3l2-4 2-1-1-5 4-4 6-16 4-11 4-14 4-9z"
     fill="#C6C4BE"
     id="path9" />
  <path
     transform="translate(803,587)"
     d="m0 0h277l13 2 8 3 6 3v2l4 1v2l3 1 4 7-1 2-9-10-11-7-7-2-9-1-278-1z"
     fill="#CAC9C3"
     id="path10" />
  <path
     transform="translate(253,726)"
     d="m0 0 2 2 4 13v4h2l1 5 1 2 1 7 4 12 1 6 8 26 5 19 5 16v5l3 1 5 25 5 17 4 13 4 16 5 21 2 5-1 4-3-7-13-49-10-36-9-32-15-53-10-34z"
     fill="#C6C4BE"
     id="path11" />
  <path
     transform="translate(1456,627)"
     d="m0 0 1 3-12 27-2 6-6 13-1 5h-2l-3 9-4 9-4 8-5 15h-2l-2 10v3h-3l-15 35-7 17-7 15-9 21-2 1 1-6 36-82 39-90z"
     fill="#C6C5BF"
     id="path12" />
  <path
     transform="translate(76,684)"
     d="m0 0 2 3 4 10 5 21 4 12 5 18 5 17 2 5 2 9 2 4v6h2l4 16 6 20 10 32 1 1 2 10 4 13-1 4-3-8-14-46-19-63-10-35-8-26-5-18z"
     fill="#C6C4BE"
     id="path13" />
  <path
     transform="translate(577,801)"
     d="m0 0 5 1 15 6 11 3-3 2-1 1 32 1v1l-8 1-36 1h-86l-2-2 24-1 7-1 7 1h39l17-1 2-1h-3l-4-3-5-1-4-3-7-4z"
     fill="#C3C1BA"
     id="path14" />
  <path
     transform="translate(1414,748)"
     d="m0 0 1 3-18 40-15 34-4 10v99l1 6-2 2-2-6v-101l7-17v-2h2l2-6 5-11 2-6v-3l2 1 2-7 14-30z"
     fill="#C6C4BD"
     id="path15" />
  <path
     transform="translate(400,676)"
     d="m0 0h2l-3 11-6 18-6 16-7 21-7 20-7 18-4 13-12 34-3 3 1-6 15-43 10-27 9-27 13-36z"
     fill="#C6C4BE"
     id="path16" />
  <path
     transform="translate(227,722)"
     d="m0 0 1 3-3 10-2 10h-2l-7 18-3 10-2 10-3 5v2h-2l-3 12-6 17v3h-2l-1 5-14 40-2 2 1-7 15-44 7-19 10-29 14-38z"
     fill="#C6C5BE"
     id="path17" />
  <path
     transform="translate(632,945)"
     d="m0 0 1 2-4 6-7 5h75l-7-5 2-1 7 4 18 4v1h-109v-2l12-3 8-5z"
     fill="#C2BFB9"
     id="path18" />
  <path
     transform="translate(511,1047)"
     d="m0 0 2 1-5 5-11 8-15 7-12 3-8 1h-17l-5-1v-1l24-1 8-2 1-3v2l9-1 10-4h-1l-10 2h-17l-13-2-8-2v-2l11 2 8 1h14l13-2 15-6z"
     fill="#C6C4BE"
     id="path19" />
  <path
     transform="translate(913,927)"
     d="m0 0 2 1-10 9-15 9-15 7-16 5-17 3h-30l-16-3-14-5-1-2 11 2 5 2 11 3 12 1h12l19-2 6-3h7l17-6 11-6 5-2 1-3 2 1v-2l7-4z"
     fill="#C7C6BF"
     id="path20" />
  <path
     transform="translate(855,722)"
     d="m0 0 9 2 14 7 11 9 8 10 3 3v2l3 1 1 4 3 5 7 21 3 16v31l-2 14-2 3 1-14 1-12v-14l-3-22-6-18-7-13-9-12-8-8-13-8-13-5z"
     fill="#C6C4BE"
     id="path21" />
  <path
     transform="translate(533,624)"
     d="m0 0 1 3-8 13-6 9-1 4h-3l-2 4-10 16-6 10-3 9-4 4-6 7-16 24-1 3h-2l-2 6h-2l2-5 14-22 16-25 13-20 14-22 9-14z"
     fill="#C7C5BF"
     id="path22" />
  <path
     transform="translate(636,818)"
     d="m0 0h1l1 17-1 98-1 3 2 1h-2l-1 3v-110z"
     fill="#C4C1BB"
     id="path23" />
  <path
     transform="translate(293,614)"
     d="m0 0 4 1-2 3-2-1-2 3h-4v2h-3v2l-8 6-9 10v3h-2v2l-4 4-12 22-9 21-7 19-4 10-1-3 9-26 11-25 8-15 8-12 12-13 8-7z"
     fill="#C6C4BE"
     id="path24" />
  <path
     transform="translate(22,513)"
     d="m0 0 88 1v3l-7 2-10 3-4 4h-2l2-4 7-5-16-1h-63v-2z"
     fill="#C9C8C2"
     id="path25" />
  <path
     transform="translate(845,768)"
     d="m0 0v3l-14 9-3 2-3-1 4-3-15 4-12 2-45 1-44-1v-1l47-1h19l23-1 17-3 19-6z"
     fill="#C5C3BC"
     id="path26" />
  <path
     transform="translate(952,754)"
     d="m0 0 3 3 5 14 4 15 2 16v28l-3 19-5 17-3 5-1-2 3-12 1-7h2l2-16 1-3 1-10v-13l-2-19-5-19-3-9z"
     fill="#C5C3BD"
     id="path27" />
  <path
     transform="translate(500,521)"
     d="m0 0h10l10 2-3 2-15 3-16 6-8 5-3-1 10-7-1-5-1-2 8-2z"
     fill="#BFBCB5"
     id="path28" />
  <path
     transform="translate(985,895)"
     d="m0 0h1l2 14 2 4v3l2 1 5 10 9 10 6 4 9 5 6 4 12 4 8 2 15 2 18 1v1l-10 1-16-1-18-4-15-6-11-7-10-9-8-10-5-11-2-6z"
     fill="#C6C4BE"
     id="path29" />
  <path
     transform="translate(243,704)"
     d="m0 0h1l-1 8-17 46-15 42-5 12-1-3 8-23 6-17 6-16v-7h2l4-10 3-7 4-11 4-13z"
     fill="#C6C4BD"
     id="path30" />
  <path
     transform="translate(1009,587)"
     d="m0 0h71l13 2 8 3 6 3v2l4 1v2l3 1 4 7-1 2-9-10-11-7-7-2-9-1-73-1z"
     fill="#CAC9C3"
     id="path31" />
  <path
     transform="translate(634,475)"
     d="m0 0h2l-2 5h-2l-2 5-3 1-6 8h-2l-2 5-7 11-7 10-12 18-1 4h-2l-3 6h-2l-2 5-4 6-1-3 14-21 11-17 15-22 10-13z"
     fill="#C6C4BE"
     id="path32" />
  <path
     transform="translate(406,688)"
     d="m0 0 1 4-13 36-10 29-5 12-2 1 1-7 1-4v-3l2-4 2-1-1-5 4-4 6-16 4-11 4-14 4-9z"
     fill="#C7C6C0"
     id="path33" />
  <path
     transform="translate(724,483)"
     d="m0 0 2 2 4 14 6 14 8 11 7 8 11 7 11 5 8 3-3 2h-2v-2l-9-3-14-7-12-12-4-6-6-11-4-10v11l-3-3-1-18z"
     fill="#C5C3BD"
     id="path34" />
  <path
     transform="translate(204,813)"
     d="m0 0 1 4-16 47-9 29-6 22-2 1 1-7 6-22 6-19 15-45z"
     fill="#C5C4BD"
     id="path35" />
  <path
     transform="translate(1464,636)"
     d="m0 0 1 4-18 39-24 54-2 1 3-12 3-3 4-10 5-11 12-27 4-10 8-16z"
     fill="#C6C4BE"
     id="path36" />
  <path
     transform="translate(1182,803)"
     d="m0 0 3 3 6 14 3 17v17l-3 21-5 15-4 7-1-3 5-12 1-7 2-3 2-13v-23l-2-12-5-15z"
     fill="#C5C3BD"
     id="path37" />
  <path
     transform="translate(1145,817)"
     d="m0 0 3 4 1 8v23l-3 15-3 11-6 13-9 12h-2l-1 3-2-1 8-10 9-17 4-14 2-10v-25l-1-5z"
     fill="#C6C4BE"
     id="path38" />
  <path
     transform="translate(771,690)"
     d="m0 0h2l-1 9-2 19 2-1h55l10 1v1h-70l3-27z"
     fill="#C9C8C2"
     id="path39" />
  <path
     transform="translate(681,670)"
     d="m0 0h2v88h-2v-82l-4 4 3-9z"
     fill="#C9C8C2"
     id="path40" />
  <path
     transform="translate(1508,565)"
     d="m0 0h8l-10 5-5 1-8 4 1 2-3 1-2 2h-2l-7 7-8 13-13 26-2 1 1-5 8-16 8-14 7-9 8-8 11-7z"
     fill="#C7C5BF"
     id="path41" />
  <path
     transform="translate(1281,730)"
     d="m0 0 2 1 11 22 5 13 4 8v3l2 1 2 5 9 20 4 9-1 3-7-14-16-36-12-26-3-6z"
     fill="#C6C4BE"
     id="path42" />
  <path
     transform="translate(1456,627)"
     d="m0 0 1 3-12 27-2 6-6 13-1 5h-2l-3 9-4 9-4 8-1 4-3 1 2-6 26-60z"
     fill="#C6C4BE"
     id="path43" />
  <path
     transform="translate(1121,906)"
     d="m0 0 2 1-1 2h-2l-1 3-6 4-3 3-22 8-8 1-1 2h-19l-12-4v-1l9 1h23l15-4 11-5 11-7z"
     fill="#C6C4BE"
     id="path44" />
  <path
     transform="translate(1307,959)"
     d="m0 0h2v3l84-1v2l-16 1h-80v-3z"
     fill="#C5C3BD"
     id="path45" />
  <path
     transform="translate(1375,844)"
     d="m0 0h2l1 90 1 6-2 2-2-6z"
     fill="#CAC9C3"
     id="path46" />
  <path
     transform="translate(1335,743)"
     d="m0 0 3 1 17 40 6 15 5 11 4 10-1 3-4-8-6-15-5-12-5-11-2-2-1-5-5-13-4-9z"
     fill="#C6C4BE"
     id="path47" />
  <path
     transform="translate(888,697)"
     d="m0 0 7 1 17 9 14 11 14 14 10 15 2 6-3-3-7-11-9-10-4-5-2-1v-2l-4-2-8-6-5-2v-3l-4-2-18-8z"
     fill="#C6C4BE"
     id="path48" />
  <path
     transform="translate(1109,756)"
     d="m0 0 10 1 21 7 16 9 11 9 7 7 7 9-1 4-1-4h-2l-6-9-2-1v-2h-2l-4-5-10-7-9-4v-2l-4-1-12-5-17-4z"
     fill="#C6C4BD"
     id="path49" />
  <path
     transform="translate(408,813)"
     d="m0 0 2 2 7 1h86v1l-60 1-39 1 2-4z"
     fill="#CAC9C3"
     id="path50" />
  <path
     transform="translate(144,761)"
     d="m0 0 2 2 7 24 9 34 3 11v6l-2-3-5-19-2-7-6-20-3-13-3-10z"
     fill="#C6C4BE"
     id="path51" />
  <path
     transform="translate(293,869)"
     d="m0 0h2l5 17 4 13 4 16 5 21 2 5-1 4-3-7-13-49-5-18z"
     fill="#C5C4BD"
     id="path52" />
  <path
     transform="translate(304,624)"
     d="m0 0h2l-2 5-7 8-6 12-3 10v13l4 17v6l-2-4-6-23 1-12h2l2-9 6-13h2v-2h2l2-4z"
     fill="#C5C3BD"
     id="path53" />
  <path
     transform="translate(1119,611)"
     d="m0 0 4 5 2 6 2 1 4 13 2 1v9l1 7v19l-2 15h-1v-37l-5-21-5-12-2-3z"
     fill="#C6C5BF"
     id="path54" />
  <path
     transform="translate(1158,589)"
     d="m0 0 4 2 8 11 6 12 4 13 2 11v14l-2-2-2-19-1-1-3-15-6-11-4-3v-4h-2l-4-6z"
     fill="#C6C4BE"
     id="path55" />
  <path
     transform="translate(1081,765)"
     d="m0 0h7l18 6 14 8 12 11 10 16 2 5-1 3-9-17-11-12-9-7-14-7-17-4z"
     fill="#C5C3BD"
     id="path56" />
  <path
     transform="translate(56,616)"
     d="m0 0h2l3 8 2 10 2 7 4 13v3h2v5l2 7 3 10-1 4-3-8-14-49z"
     fill="#C6C4BE"
     id="path57" />
  <path
     transform="translate(776,584)"
     d="m0 0 6 1 2 1-1 16-1 14 1 1-1 9-2 1-2 13h-1v-11l5-42-5-1z"
     fill="#C6C4BE"
     id="path58" />
  <path
     transform="translate(124,696)"
     d="m0 0h3l5 16 12 44-1 4-3-6-2-9-5-19-4-14-3-11v-4z"
     fill="#C5C3BD"
     id="path59" />
  <path
     transform="translate(1526,564)"
     d="m0 0h10v6l-13 2-12 5-13 9-5 6h-2l4-8 7-4 11-7 8-4 12-2h-6z"
     fill="#C6C4BD"
     id="path60" />
  <path
     transform="translate(622,523)"
     d="m0 0 1 4-10 28-9 30-2 2 1-7 3-11v-6l2-3h2v-7h2l2-11 5-12z"
     fill="#C6C4BE"
     id="path61" />
  <path
     transform="translate(317,786)"
     d="m0 0 2 1 14 51 3 10v6l-2-4-4-13-7-24-3-10-3-14z"
     fill="#C6C4BE"
     id="path62" />
  <path
     transform="translate(278,812)"
     d="m0 0 2 3 7 23v5l3 1 4 20v5l-2-2-10-35-4-15z"
     fill="#C7C5BF"
     id="path63" />
  <path
     transform="translate(150,936)"
     d="m0 0h2l4 13 1 8h3v-6h2v-8l4-4-1 10-5 15-2 1-6-18z"
     fill="#C6C4BE"
     id="path64" />
  <path
     transform="translate(533,624)"
     d="m0 0 1 3-8 13-6 9-1 4h-3l-2 4-10 16-4 6-2-1 16-25 13-20z"
     fill="#C6C4BE"
     id="path65" />
  <path
     transform="translate(663,463)"
     d="m0 0h16l12 3 7 3v1l-21-1v-1l8-1-7-1h-16l-11 3h-3v-2z"
     fill="#C7C5BF"
     id="path66" />
  <path
     transform="translate(964,821)"
     d="m0 0h1v17l-3 15-5 15-3 3 3-14 1-7h2l2-16 1-3z"
     fill="#C6C4BE"
     id="path67" />
  <path
     transform="translate(1065,754)"
     d="m0 0h5l-1 2-12 3-9 1-1 2-7 1-19-1 2-2 28-3z"
     fill="#C5C3BD"
     id="path68" />
  <path
     transform="translate(598,598)"
     d="m0 0 1 3-10 23-11 18-2 1 2-6 4-7v-3l2-3 3-3 1-5h3l1-5z"
     fill="#C7C5BF"
     id="path69" />
  <path
     transform="translate(760,812)"
     d="m0 0h6l-1 2-17 4-8 1h-28v-1l27-2h5v-2h10z"
     fill="#C6C4BE"
     id="path70" />
  <path
     transform="translate(326,603)"
     d="m0 0h17l1 2-16 5-7 4-3-1 10-6 3-1-12 1-13 3v-2l14-4z"
     fill="#C6C4BD"
     id="path71" />
  <path
     transform="translate(662,465)"
     d="m0 0h16l10 2-4 1-3 2-10 2h-5l-2-5h-2z"
     fill="#BCB8B1"
     id="path72" />
  <path
     transform="translate(1288,614)"
     d="m0 0h25v2l-17 1-64-1v-1z"
     fill="#C8C7C1"
     id="path73" />
  <path
     transform="translate(581,815)"
     d="m0 0m-50-1 11 1 39 1v1l-75 1-2-2 24-1z"
     fill="#CAC9C3"
     id="path74" />
  <path
     transform="translate(733,533)"
     d="m0 0h3l2 7 9 16 8 9 5 5 7 6v2l-4-2-10-9-10-13-9-16z"
     fill="#C6C4BE"
     id="path75" />
  <path
     transform="translate(913,927)"
     d="m0 0 2 1-10 9-15 9-15 7-10 3 1-3 15-5 11-6 5-2 1-3 2 1v-2l7-4z"
     fill="#C6C4BE"
     id="path76" />
  <path
     transform="translate(90,565)"
     d="m0 0 2 2 12 45v7l-2-3-3-12v-3h-2l-1-9-4-14-2-9z"
     fill="#C6C4BE"
     id="path77" />
  <path
     transform="translate(86,514)"
     d="m0 0h24v3l-7 2-10 3-4 4h-2l2-4 7-5-10-1z"
     fill="#C8C7C1"
     id="path78" />
  <path
     transform="translate(784,855)"
     d="m0 0 1 2-4 10-2 11v8l4 16 2 6-3-3-4-9-2-8v-14l6-16z"
     fill="#C6C4BD"
     id="path79" />
  <path
     transform="translate(1315,694)"
     d="m0 0 3 3 11 26 6 14-1 4-5-12v-2h-2l-6-16-1-5h-2l-3-9z"
     fill="#C7C5BF"
     id="path80" />
  <path
     transform="translate(748,782)"
     d="m0 0 44 1v1l-35 1-44-1v-1z"
     fill="#C8C6C0"
     id="path81" />
  <path
     transform="translate(406,688)"
     d="m0 0 1 4-13 36-3 8h-1l1-7 3-10 2-4 4-14 4-9z"
     fill="#C6C4BE"
     id="path82" />
  <path
     transform="translate(1180,665)"
     d="m0 0h1v8l-4 14-6 15-6 9-1-3 4-7 4-9v-2h2l1-5 4-18z"
     fill="#C5C3BD"
     id="path83" />
  <path
     transform="translate(504,524)"
     d="m0 0h4v2l-20 7-10 6-3-1 10-7 1-5 4 1 1 1 6-2z"
     fill="#C7C5BF"
     id="path84" />
  <path
     transform="translate(912,851)"
     d="m0 0 1 3-5 17-3 5-3 7-7 10-6 5 2-4 8-11 7-15 5-16z"
     fill="#C6C5BE"
     id="path85" />
  <path
     transform="translate(1072,551)"
     d="m0 0h13l17 3 14 5-1 2-14-4-5-1-8-2-16-1z"
     fill="#C6C4BE"
     id="path86" />
  <path
     transform="translate(292,696)"
     d="m0 0 2 1 11 40v4h-2l-4-17-3-7-2-9-2-4z"
     fill="#C5C4BD"
     id="path87" />
  <path
     transform="translate(532,709)"
     d="m0 0 1 3-10 15-11 17-2 1 2-6 7-11 1-4 5-5 3-5z"
     fill="#C7C5BF"
     id="path88" />
  <path
     transform="translate(840,687)"
     d="m0 0h12l19 3 8 2v2l-8-1-3-1-28-3z"
     fill="#C6C5BE"
     id="path89" />
  <path
     transform="translate(740,521)"
     d="m0 0 6 5 5 6 11 7 11 5 8 3-3 2h-2v-2l-9-3-14-7-12-12z"
     fill="#C7C5BF"
     id="path90" />
  <path
     transform="translate(1195,613)"
     d="m0 0 29 1-4 2h-18l13 4 3 3-5-1-18-6z"
     fill="#C7C5BF"
     id="path91" />
  <path
     transform="translate(449,572)"
     d="m0 0 1 3-13 34-2 1 1-7 3-8 3-11h2l3-9z"
     fill="#C6C5BE"
     id="path92" />
  <path
     transform="translate(1088,588)"
     d="m0 0 12 3 4 3 3 1v2l4 1v2l3 1 4 7-1 2-9-10-11-7-7-2-9-1v-1z"
     fill="#C5C3BC"
     id="path93" />
  <path
     transform="translate(571,564)"
     d="m0 0 2 1-8 13-3 5-10 16-3 4-2-1 15-24z"
     fill="#C5C3BD"
     id="path94" />
  <path
     transform="translate(1378,943)"
     d="m0 0 5 5 8 7 9 4 13 2v1h-18l-1-2-5-3-6-5-5-6z"
     fill="#C6C4BE"
     id="path95" />
  <path
     transform="translate(0,517)"
     d="m0 0h8l9 3 11 7 4 6-1 3-7-9-8-5-16-2z"
     fill="#C6C4BE"
     id="path96" />
  <path
     transform="translate(1024,858)"
     d="m0 0 1 4-3 8v19l1 10-3-4-1-6v-20z"
     fill="#C5C3BD"
     id="path97" />
  <path
     transform="translate(690,952)"
     d="m0 0 5 2 8 3 14 3v1h-25v-2l5-1-7-5z"
     fill="#C3C0BA"
     id="path98" />
  <path
     transform="translate(1145,817)"
     d="m0 0 3 4 1 8v23l-1 5h-1l-1-28-1-5z"
     fill="#C8C6C0"
     id="path99" />
  <path
     transform="translate(480,525)"
     d="m0 0h5l-4 4-6 1-10 5-7 5-1 2h-2v5l-5-1 6-7 8-6z"
     fill="#C7C5BF"
     id="path100" />
  <path
     transform="translate(527,783)"
     d="m0 0h9l16 5 16 7v2l-10-3-9-4-12-4-10-2z"
     fill="#C5C4BD"
     id="path101" />
  <path
     transform="translate(357,965)"
     d="m0 0 3 3 8 16 8 14 3 4-1 2-6-8-8-13-7-16z"
     fill="#C6C4BE"
     id="path102" />
  <path
     transform="translate(1300,659)"
     d="m0 0h2l12 29-1 3-3-5-2-3v-2l-3-2h2l-5-12-2-5z"
     fill="#C6C4BE"
     id="path103" />
  <path
     transform="translate(316,948)"
     d="m0 0 2 3 5 13 7 18 1 4-3-3-9-21-3-9z"
     fill="#C6C4BE"
     id="path104" />
  <path
     transform="translate(608,811)"
     d="m0 0 18 1v2l-3 1h-19l-2-2z"
     fill="#BEBBB4"
     id="path105" />
  <path
     transform="translate(436,773)"
     d="m0 0 2 1-7 11-8 13h-2l-2 4-5 6-2-1 12-16z"
     fill="#C5C4BD"
     id="path106" />
  <path
     transform="translate(461,736)"
     d="m0 0 1 3-2 4h-2l-1 5h-2l-2 5-1 2h-2l-2 5-7 9v-3l15-23z"
     fill="#C5C3BD"
     id="path107" />
  <path
     transform="translate(335,993)"
     d="m0 0h2l5 9 5 6 7 11 4 4-1 2-9-10-11-16-2-3z"
     fill="#C6C4BE"
     id="path108" />
  <path
     transform="translate(848,924)"
     d="m0 0 3 1-6 3-13 2h-12l-10-2v-1h24z"
     fill="#C8C7C1"
     id="path109" />
  <path
     transform="translate(1113,952)"
     d="m0 0 3 1-7 3-21 4h-7v-2l29-5z"
     fill="#C6C4BD"
     id="path110" />
  <path
     transform="translate(939,898)"
     d="m0 0 1 2-9 12-10 11h-2l2-4 7-8 4-4v-3l2-3 4-2z"
     fill="#C7C5BF"
     id="path111" />
  <path
     transform="translate(781,951)"
     d="m0 0 11 2 5 2 11 3 9 1v2l-12-1-15-4-9-4z"
     fill="#C6C4BE"
     id="path112" />
  <path
     transform="translate(1331,888)"
     d="m0 0h1l1 28 1 10-1 1-1 10-3 2 1-7z"
     fill="#C9C8C2"
     id="path113" />
  <path
     transform="translate(1e3 852)"
     d="m0 0v3l-5 5-5 9h-2l-4 16h-1v-7l5-13 8-10z"
     fill="#C7C5BF"
     id="path114" />
  <path
     transform="translate(784,648)"
     d="m0 0h1v13l-2 18-2 7-2-1z"
     fill="#C7C5BF"
     id="path115" />
  <path
     transform="translate(1225,627)"
     d="m0 0 5 2 5 5v2h2v3l4 1 1 6 5 9-1 3-10-18-9-10-2-1z"
     fill="#C6C4BE"
     id="path116" />
  <path
     transform="translate(596,526)"
     d="m0 0 2 1-7 11-1 4h-2l-3 6h-2l-2 5-4 6-1-3 14-21z"
     fill="#C5C3BD"
     id="path117" />
  <path
     transform="translate(742,900)"
     d="m0 0 2 4 3 10 3 4 1 5 6 9-1 2-7-9-5-11-3-11z"
     fill="#C6C5BF"
     id="path118" />
  <path
     transform="translate(1121,906)"
     d="m0 0 2 1-1 2h-2l-1 3-6 4-3 3-16 6h-5l3-2 13-5 13-9z"
     fill="#C5C3BD"
     id="path119" />
  <path
     transform="translate(561,662)"
     d="m0 0h2l-1 4-12 19-2 3h-2l2-6 2-4 2-1 4-7h2l1-5z"
     fill="#C7C5BF"
     id="path120" />
  <path
     transform="translate(1479,608)"
     d="m0 0 1 3-6 10-6 13h-2l1-5 1-3-1-2 2-1 1-3 4-4 3-6z"
     fill="#C6C5BE"
     id="path121" />
  <path
     transform="translate(425,634)"
     d="m0 0h1l-1 8-9 25-2 1 1-9 3-7z"
     fill="#C6C4BE"
     id="path122" />
  <path
     transform="translate(137,890)"
     d="m0 0 3 4 3 11 3 5 1 8 1 3-3 1-8-28z"
     fill="#C7C5BF"
     id="path123" />
  <path
     transform="translate(812,788)"
     d="m0 0 3 2-11 7-13 7-4-1 11-6 1-2 11-5h2z"
     fill="#C7C5BF"
     id="path124" />
  <path
     transform="translate(927,721)"
     d="m0 0 4 2 9 9 10 15 2 6-3-3-7-11-9-10-4-5-2-1z"
     fill="#C7C6C0"
     id="path125" />
  <path
     transform="translate(1130,688)"
     d="m0 0 1 4-4 15-7 11-4 3 2-5 8-16 3-11z"
     fill="#C6C4BE"
     id="path126" />
  <path
     transform="translate(1248,660)"
     d="m0 0 3 2 4 9v2h2l2 5 3 7v3h-2l-12-25z"
     fill="#C5C3BD"
     id="path127" />
  <path
     transform="translate(361,1028)"
     d="m0 0 4 2 9 7 2 1v2h2v2h2v2l4 2 8 6h-3l-12-9-10-8z"
     fill="#C6C4BE"
     id="path128" />
  <path
     transform="translate(1124,564)"
     d="m0 0 5 1 14 9 9 7v3l-6-5-5-2v-2l-5-2-10-7z"
     fill="#C6C4BE"
     id="path129" />
  <path
     transform="translate(763,852)"
     d="m0 0 4 1-9 5-5 5-6 9-2 5-1-4 4-8 7-8z"
     fill="#C6C4BE"
     id="path130" />
  <path
     transform="translate(304,742)"
     d="m0 0h2l4 12 4 15v5l-2-2-4-13-4-16z"
     fill="#C6C4BD"
     id="path131" />
  <path
     transform="translate(39,555)"
     d="m0 0 2 1 5 17v3l2 1-1 1 2 10-2-1-8-28z"
     fill="#C7C5BF"
     id="path132" />
  <path
     transform="translate(85,527)"
     d="m0 0h1v14l3 14v6l-2-3-4-15-1-11z"
     fill="#C6C4BD"
     id="path133" />
  <path
     transform="translate(1266,697)"
     d="m0 0 4 5 1 5h2l7 18-1 2-8-16-5-11z"
     fill="#C6C4BE"
     id="path134" />
  <path
     transform="translate(1176,621)"
     d="m0 0h2l3 11 1 6v14l-2-2-2-19-1-1z"
     fill="#C7C5BF"
     id="path135" />
  <path
     transform="translate(409,1037)"
     d="m0 0 4 2 13 9 7 4v2l-6-2-6-3v-2l-6-2-4-4v-2h-2z"
     fill="#C6C4BE"
     id="path136" />
  <path
     transform="translate(56,616)"
     d="m0 0h2l3 8 2 10 2 7v6l-2-3-7-25z"
     fill="#C6C4BE"
     id="path137" />
  <path
     transform="translate(1149,933)"
     d="m0 0h2v2l-14 9-12 6-4-1 16-8 7-5z"
     fill="#C6C4BD"
     id="path138" />
  <path
     transform="translate(780,616)"
     d="m0 0 3 1-1 9-2 1-2 13h-1v-11l2-12z"
     fill="#C7C6C0"
     id="path139" />
  <path
     transform="translate(466,544)"
     d="m0 0h3l-2 4-7 8-9 15-1-2 8-15 6-7h2z"
     fill="#C6C5BE"
     id="path140" />
  <path
     transform="translate(883,903)"
     d="m0 0v3l-7 6-3 3-16 8-2-1 14-8z"
     fill="#C6C4BE"
     id="path141" />
  <path
     transform="translate(501,757)"
     d="m0 0 1 2-10 16-6 7v-3l2-4h2l3-9h3l1-4z"
     fill="#C7C6BF"
     id="path142" />
  <path
     transform="translate(676,681)"
     d="m0 0 1 2-5 10-6 9-5 6v-3l11-18z"
     fill="#C6C4BE"
     id="path143" />
  <path
     transform="translate(1317,615)"
     d="m0 0h3v2l-15 5-5 5-3 5-1-4 7-8 6-3z"
     fill="#C6C4BE"
     id="path144" />
  <path
     transform="translate(229,743)"
     d="m0 0 1 4-8 22-3 2 3-10 3-8v-7h2z"
     fill="#C7C6C0"
     id="path145" />
  <path
     transform="translate(166,841)"
     d="m0 0 2 2 6 21v5l-2-2-1-7-2-1-2-10-2-7z"
     fill="#C7C6BF"
     id="path146" />
  <path
     transform="translate(1153,724)"
     d="m0 0v3l-9 9-9 7-3-1 7-6 5-5 5-3z"
     fill="#C7C6C0"
     id="path147" />
  <path
     transform="translate(611,503)"
     d="m0 0h2l-2 6-4 5-7 11-3 1 2-5z"
     fill="#C7C5BF"
     id="path148" />
  <path
     transform="translate(135,732)"
     d="m0 0h2l5 16 2 8-1 4-3-6-2-9z"
     fill="#C6C4BE"
     id="path149" />
  <path
     transform="translate(632,945)"
     d="m0 0 1 2-4 6-7 5v2l-14 1v-2l12-3 8-5z"
     fill="#C6C4BE"
     id="path150" />
  <path
     transform="translate(1025,904)"
     d="m0 0 4 4 4 6 8 6 6 3v2l-9-3-9-9-4-7z"
     fill="#C7C5BF"
     id="path151" />
  <path
     transform="translate(1328,940)"
     d="m0 0 1 4-9 11-6 4h-3v-2l9-6 5-6z"
     fill="#C4C2BC"
     id="path152" />
  <path
     transform="translate(1189,872)"
     d="m0 0h1l-1 10-6 14-2 1 1-5 4-10 1-7z"
     fill="#C6C5BF"
     id="path153" />
  <path
     transform="translate(645,484)"
     d="m0 0 2 1-7 9-7 12h-2l2-7 10-13z"
     fill="#C6C4BE"
     id="path154" />
  <path
     transform="translate(500,521)"
     d="m0 0h10l10 2-3 2-9 1v-2h-8z"
     fill="#C3C1BA"
     id="path155" />
  <path
     transform="translate(380,1006)"
     d="m0 0 5 4 7 9 6 7h-3l-1-2h-3v-4l-3-1-8-11z"
     fill="#C5C3BD"
     id="path156" />
  <path
     transform="translate(1442,661)"
     d="m0 0v3l-5 12-1 5h-2v2h-2l1-5 7-16z"
     fill="#C7C5BF"
     id="path157" />
  <path
     transform="translate(497,1055)"
     d="m0 0 2 1v2l-8 3-10 1-5-1v-1l13-2z"
     fill="#C4C2BC"
     id="path158" />
  <path
     transform="translate(1011,941)"
     d="m0 0 5 2 11 7 6 2v1l-7-1-12-6-3-2z"
     fill="#C7C5BF"
     id="path159" />
  <path
     transform="translate(227,722)"
     d="m0 0 1 3-3 10-2 10-1-2-3 1 3-10z"
     fill="#C7C5BF"
     id="path160" />
  <path
     transform="translate(652,717)"
     d="m0 0v3l-2 4-2 1v3l-6 2-4 4v-3z"
     fill="#C6C4BE"
     id="path161" />
  <path
     transform="translate(771,690)"
     d="m0 0h2l-1 9-2 15-2 1 1-15z"
     fill="#C6C4BE"
     id="path162" />
  <path
     transform="translate(293,614)"
     d="m0 0 4 1-2 3-2-1-2 3h-4v2h-3v2l-3 2-3-1 13-10z"
     fill="#C7C5BF"
     id="path163" />
  <path
     transform="translate(757,934)"
     d="m0 0 4 2 7 5v2l4 1 5 4 2 2-4-1-11-7-7-6z"
     fill="#C7C6BF"
     id="path164" />
  <path
     transform="translate(1176,904)"
     d="m0 0 1 2-6 9-7 8-2-1 2-5 3-1z"
     fill="#C6C5BF"
     id="path165" />
  <path
     transform="translate(964,821)"
     d="m0 0h1v17l-2 9-2 1 1-14 1-3z"
     fill="#C8C6C0"
     id="path166" />
  <path
     transform="translate(1508,565)"
     d="m0 0h8l-10 5-5 1-5 2 2-4z"
     fill="#C7C6BF"
     id="path167" />
  <path
     transform="translate(1295,632)"
     d="m0 0h1v10l3 10-1 4h-1l-4-14v-7z"
     fill="#C6C5BF"
     id="path168" />
  <path
     transform="translate(486,526)"
     d="m0 0 4 1v5l-11 6-4 1 3-3 7-5z"
     fill="#C8C7C0"
     id="path169" />
  <path
     transform="translate(1376,922)"
     d="m0 0h2v12l1 6-2 2-2-6v-13z"
     fill="#C7C5BF"
     id="path170" />
  <path
     transform="translate(1402,774)"
     d="m0 0 1 4-7 16-4-2 1-2 2 1 2-7z"
     fill="#C7C5BF"
     id="path171" />
  <path
     transform="translate(663,463)"
     d="m0 0h7l-1 2-12 2-6 2h-3v-2z"
     fill="#C5C3BD"
     id="path172" />
  <path
     transform="translate(378,769)"
     d="m0 0 1 2-7 19-2-2 6-17z"
     fill="#C5C4BD"
     id="path173" />
  <path
     transform="translate(775,849)"
     d="m0 0h11l4 1-1 3h-2v-2l-19 1 1-2z"
     fill="#C4C2BC"
     id="path174" />
  <path
     transform="translate(116,663)"
     d="m0 0h2l4 14v5l-2-2-3-11-2-4z"
     fill="#C7C5BF"
     id="path175" />
  <path
     transform="translate(559,585)"
     d="m0 0v3l-7 11-3 4-2-1 10-16z"
     fill="#C7C6C0"
     id="path176" />
  <path
     transform="translate(1321,817)"
     d="m0 0 4 5 5 12v2h-2l-7-15z"
     fill="#C6C4BE"
     id="path177" />
  <path
     transform="translate(527,783)"
     d="m0 0h9l11 3 2 3-5-1-17-4z"
     fill="#C7C6C0"
     id="path178" />
  <path
     transform="translate(1394,958)"
     d="m0 0 12 2 7 1v1h-18z"
     fill="#C5C3BD"
     id="path179" />
  <path
     transform="translate(461,736)"
     d="m0 0 1 3-2 4h-2l-1 5h-2l-1 3h-2l2-5z"
     fill="#C7C5BF"
     id="path180" />
  <path
     transform="translate(243,704)"
     d="m0 0h1l-1 8-4 9-2 1 2-9z"
     fill="#C6C5BF"
     id="path181" />
  <path
     transform="translate(246,704)"
     d="m0 0 3 3 4 15-1 3-6-18z"
     fill="#C6C4BE"
     id="path182" />
  <path
     transform="translate(433,613)"
     d="m0 0 1 4-5 14-2 1 1-6z"
     fill="#C5C3BD"
     id="path183" />
  <path
     transform="translate(792,587)"
     d="m0 0h7l2 2-7 1-2 11h-1v-12z"
     fill="#C7C5BF"
     id="path184" />
  <path
     transform="translate(424,793)"
     d="m0 0v3l-1 2h-2l-2 4-5 6-2-1 10-13z"
     fill="#C6C5BE"
     id="path185" />
  <path
     transform="translate(406,688)"
     d="m0 0 1 4-5 14-2-1v-5l3-5z"
     fill="#C7C5BF"
     id="path186" />
  <path
     transform="translate(95,517)"
     d="m0 0h6l2 2-10 3-4 4h-2l2-4z"
     fill="#C6C4BE"
     id="path187" />
  <path
     transform="translate(664,467)"
     d="m0 0h6l2 2 4 1-5 2h-5z"
     fill="#C7C6BF"
     id="path188" />
  <path
     transform="translate(277,626)"
     d="m0 0 2 1-7 7-7 8-2 1 2-4 11-12z"
     fill="#C4C2BB"
     id="path189" />
  <path
     transform="translate(996,927)"
     d="m0 0 5 5 10 9-1 2-10-9-4-5z"
     fill="#C5C3BD"
     id="path190" />
  <path
     transform="translate(785,908)"
     d="m0 0 5 5 8 7 2 1-1 2-10-7-4-6z"
     fill="#C6C4BE"
     id="path191" />
  <path
     transform="translate(408,813)"
     d="m0 0 2 2 7 2v1l-13 1 2-4z"
     fill="#C8C6C0"
     id="path192" />
  <path
     transform="translate(65,645)"
     d="m0 0 2 3 2 9h2l-1 5-2-1-3-10z"
     fill="#C7C5BF"
     id="path193" />
  <path
     transform="translate(1526,564)"
     d="m0 0h10v5h-6l2-2h-5z"
     fill="#C8C6C0"
     id="path194" />
  <path
     transform="translate(472,1064)"
     d="m0 0 1 2h7l-1 3-12 2 3-3 2-1z"
     fill="#C6C5BF"
     id="path195" />
  <path
     transform="translate(204,813)"
     d="m0 0 1 4-4 12-3 2 1-7 4-9z"
     fill="#C7C5BF"
     id="path196" />
  <path
     transform="translate(1136,764)"
     d="m0 0 6 1 9 5v2l-7-2v-2l-4-1z"
     fill="#C7C5BF"
     id="path197" />
  <path
     transform="translate(940,735)"
     d="m0 0 3 1 9 15-1 2-9-14z"
     fill="#C6C4BD"
     id="path198" />
  <path
     transform="translate(782,668)"
     d="m0 0h1v11l-2 7-2-1 2-16z"
     fill="#C8C6C0"
     id="path199" />
  <path
     transform="translate(33,537)"
     d="m0 0 3 3 3 10-1 4-3-8-2-5z"
     fill="#C6C5BF"
     id="path200" />
  <path
     transform="translate(848,924)"
     d="m0 0 3 1-6 3-10 1-1-2z"
     fill="#C6C4BE"
     id="path201" />
  <path
     transform="translate(1072,551)"
     d="m0 0h13l3 2-6 1-10-1z"
     fill="#C7C5BF"
     id="path202" />
  <path
     transform="translate(421,1046)"
     d="m0 0 5 2 7 4v2l-6-2-6-3z"
     fill="#C7C5BF"
     id="path203" />
  <path
     transform="translate(170,921)"
     d="m0 0h1l-1 9-2 8-3-1z"
     fill="#C5C3BD"
     id="path204" />
  <path
     transform="translate(111,644)"
     d="m0 0h2l3 11v6l-2-3-2-6v-6l-2-1z"
     fill="#C6C5BE"
     id="path205" />
  <path
     transform="translate(441,594)"
     d="m0 0 1 2-5 13-2 1 1-7 4-8z"
     fill="#C5C3BD"
     id="path206" />
  <path
     transform="translate(1427,719)"
     d="m0 0 1 3-6 12-1-2 3-10z"
     fill="#C8C6C0"
     id="path207" />
  <path
     transform="translate(1296,614)"
     d="m0 0h17v2l-14 1v-2z"
     fill="#C3C1BA"
     id="path208" />
  <path
     transform="translate(883,903)"
     d="m0 0v3l-7 6-3 3-2-1 5-5z"
     fill="#C7C5BF"
     id="path209" />
  <path
     transform="translate(898,884)"
     d="m0 0h2l-2 5-7 8-2 1 2-4z"
     fill="#C5C3BD"
     id="path210" />
  <path
     transform="translate(1e3 852)"
     d="m0 0v3l-9 9v-3l7-8z"
     fill="#C6C4BD"
     id="path211" />
  <path
     transform="translate(1315,694)"
     d="m0 0 3 3 4 10-4-1-3-9z"
     fill="#C6C4BE"
     id="path212" />
  <path
     transform="translate(61,631)"
     d="m0 0 3 4 1 12-2-3-2-7z"
     fill="#C5C3BD"
     id="path213" />
  <path
     transform="translate(22,524)"
     d="m0 0 5 2 5 7-1 3-7-9-2-1z"
     fill="#C7C5BF"
     id="path214" />
  <path
     transform="translate(1420,711)"
     d="m0 0 1 3-3 8h-3l3-9z"
     fill="#C8C7C1"
     id="path215" />
  <path
     transform="translate(396,692)"
     d="m0 0 1 2-4 11h-2l2-9 1-3z"
     fill="#C7C6C0"
     id="path216" />
  <path
     transform="translate(425,634)"
     d="m0 0h1l-1 8-3 6-2 1 1-4z"
     fill="#C7C6C0"
     id="path217" />
  <path
     transform="translate(166,841)"
     d="m0 0 2 2 3 12h-2l-4-11z"
     fill="#C6C4BE"
     id="path218" />
  <path
     transform="translate(845,768)"
     d="m0 0v3l-9 6h-2l1-4z"
     fill="#C4C1BB"
     id="path219" />
  <path
     transform="translate(1248,660)"
     d="m0 0 3 2 4 9v2h-2l-5-10z"
     fill="#C6C5BE"
     id="path220" />
  <path
     transform="translate(1496,570)"
     d="m0 0 2 1-5 4 1 2-3 1-2 2-1-4z"
     fill="#C4C2BC"
     id="path221" />
</svg>
